<?xml version="1.0" encoding="utf-8"?>
<!-- Svg Vector Icons : http://www.onlinewebfonts.com/icon -->
<!DOCTYPE svg PUBLIC "-//W3C//DTD SVG 1.1//EN" "http://www.w3.org/Graphics/SVG/1.1/DTD/svg11.dtd">
<svg version="1.1" xmlns="http://www.w3.org/2000/svg" xmlns:xlink="http://www.w3.org/1999/xlink" x="0px" y="0px" viewBox="0 0 256 256" enable-background="new 0 0 256 256" xml:space="preserve">
<metadata> Svg Vector Icons : http://www.onlinewebfonts.com/icon </metadata>
<g><g><g><g id="Layer_1_copy_49_"><path fill="#000000" d="M44.5,126.8c-1.3-1.9-2.7-3.3-2.7-6.8v-11.4c0-4.8,0.3-9.2-3.2-12.6c-2.8-2.7-7.4-3.6-11-3.6c-6.9,0-14.7,2.6-16.3,11.2c-0.2,0.9,0.5,1.4,1.1,1.5l7.1,0.8c0.7,0,1.1-0.7,1.3-1.3c0.6-3,3.1-4.4,5.9-4.4c1.5,0,3.2,0.6,4.1,1.9c1,1.5,0.9,3.6,0.9,5.3v0.9c-4.2,0.5-9.8,0.8-13.7,2.6c-4.6,1.9-7.8,6-7.8,11.9c0,7.6,4.8,11.4,10.9,11.4c5.2,0,8-1.2,12-5.3c1.3,1.9,1.8,2.9,4.2,4.9c0.6,0.3,1.3,0.3,1.7-0.2h0c1.4-1.3,4.1-3.6,5.6-4.8C45.1,128.2,45,127.4,44.5,126.8z M31.5,115.8c0,2.8,0.1,5.2-1.4,7.8c-1.2,2-3,3.3-5.1,3.3c-2.8,0-4.4-2.1-4.4-5.3c0-6.2,5.6-7.3,10.8-7.3L31.5,115.8L31.5,115.8z M50.2,132.4V94.9c0-0.7,0.6-1.3,1.4-1.3h6.8c0.7,0,1.3,0.6,1.3,1.3v4.9h0.1c1.8-4.7,5.1-6.9,9.6-6.9c4.6,0,7.4,2.2,9.5,6.9c1.8-4.7,5.8-6.9,10.1-6.9c3.1,0,6.4,1.3,8.5,4.1c2.3,3.2,1.8,7.7,1.8,11.8v23.6c0,0.7-0.6,1.3-1.4,1.3h-7.3c-0.7-0.1-1.3-0.6-1.3-1.3v-19.9c0-1.6,0.1-5.5-0.2-7c-0.6-2.5-2.2-3.2-4.3-3.2c-1.8,0-3.6,1.2-4.4,3.1c-0.7,1.9-0.7,5.1-0.7,7.2v19.9c0,0.7-0.6,1.3-1.4,1.3h-7.3c-0.7-0.1-1.3-0.6-1.3-1.3v-19.9c0-4.2,0.7-10.3-4.5-10.3c-5.2,0-5,6-5,10.3v19.9c0,0.7-0.6,1.3-1.4,1.3h-7.3C50.8,133.6,50.3,133.1,50.2,132.4z M156.4,148.1c-13.7,10.1-33.6,15.5-50.7,15.5c-24,0-45.6-8.9-61.9-23.6c-1.3-1.2-0.1-2.7,1.4-1.8c17.6,10.3,39.4,16.4,62,16.4c15.2,0,31.9-3.1,47.3-9.7C156.8,143.9,158.7,146.4,156.4,148.1z M173.9,125.6v5.7c0,0.8-0.8,1.7-1.8,1.2c-7.4-3.9-17.2-4.3-25.4,0c-0.8,0.5-1.7-0.4-1.7-1.2v-5.4c0-0.9,0-2.4,0.9-3.7l14.4-20.7h-12.5c-0.8,0-1.4-0.6-1.4-1.3v-5.4c0-0.8,0.6-1.3,1.3-1.3h24c0.8,0,1.4,0.6,1.4,1.3v4.6c0,0.8-0.6,1.8-1.8,3.4l-12.4,17.7c4.6-0.1,9.5,0.6,13.7,2.9C173.5,124.1,173.8,124.8,173.9,125.6z M127.3,108.3c-4.2,0.5-9.8,0.8-13.7,2.5c-4.6,2-7.8,6-7.8,11.9c0,7.6,4.8,11.4,10.9,11.4c5.2,0,8-1.2,12-5.3c1.3,1.9,1.8,2.9,4.2,4.9c0.6,0.3,1.3,0.3,1.7-0.2l0,0c1.5-1.3,4.1-3.6,5.6-4.8c0.6-0.5,0.5-1.3,0-1.9c-1.3-1.9-2.7-3.3-2.7-6.8v-11.4c0-4.8,0.3-9.2-3.2-12.6c-2.8-2.7-7.4-3.6-11-3.6c-6.9,0-14.7,2.6-16.3,11.2c-0.2,0.9,0.5,1.4,1.1,1.5l7.1,0.8c0.6,0,1.2-0.7,1.3-1.3c0.6-3,3.1-4.4,5.9-4.4c1.5,0,3.2,0.6,4.1,1.9c1,1.5,0.9,3.6,0.9,5.3L127.3,108.3L127.3,108.3z M127.3,115.8c0,2.8,0.1,5.2-1.4,7.8c-1.2,2-3,3.3-5,3.3c-2.8,0-4.5-2.1-4.5-5.3c0-6.2,5.6-7.3,10.9-7.3V115.8z M193.8,92.8c-10.6,0-16.4,9.1-16.4,20.7c0,11.6,5.8,20.9,16.4,20.9c10.2,0,16.7-9.1,16.7-20.5C210.6,102.1,204.7,92.8,193.8,92.8z M193.8,126.7c-5.7,0-5.7-9.8-5.7-14.4c0-4.6,0.3-11.9,5.7-11.9c2.3,0,4,1,4.8,3.6c1,3,1.1,6.8,1.1,9.9C199.8,118.8,199.5,126.7,193.8,126.7z M244.1,97.2c1.9,3,1.9,8,1.9,11.7v23.6c-0.1,0.7-0.7,1.2-1.4,1.2h-7.3c-0.6-0.1-1.2-0.6-1.3-1.2v-20.3c0-4.1,0.5-10.1-4.6-10.1c-1.8,0-3.4,1.2-4.2,3c-1,2.3-1.2,4.6-1.2,7.1v20.2c0,0.7-0.6,1.4-1.4,1.4h-7.3c-0.7,0-1.3-0.7-1.3-1.4V94.8c0.1-0.7,0.7-1.2,1.4-1.2h6.8c0.6,0,1.2,0.5,1.3,1.1v5.7h0.1c2-5.1,4.9-7.6,9.9-7.6C238.8,92.8,242,94,244.1,97.2z M168,137.1c1.5,1.9-0.4,14.8-7.8,20.9c-1.1,0.9-2.2,0.4-1.7-0.8c1.7-4.1,5.4-13.4,3.6-15.6c-1.7-2.2-11.6-1.1-16-0.5c-1.3,0.2-1.5-1-0.3-1.9C153.6,133.6,166.5,135.2,168,137.1z"/></g></g><g></g><g></g><g></g><g></g><g></g><g></g><g></g><g></g><g></g><g></g><g></g><g></g><g></g><g></g><g></g></g></g>
</svg>